# xmcd
#
# Track frame offsets: 
#        150
#        22876
#        43872
#        48425
#        66706
#        91484
#        131522
#        155229
#
# Disc length: 2404 seconds
#
# Revision: 0
# Processed by: cddbd v1.5.2PL0 Copyright (c) Steve Scherf et al.
# Submitted via: ExactAudioCopy v1.0b1
#
DISCID=71096208
DTITLE=Silk - Midnight Dancer (2010 Japan Remastered)
DYEAR=1979
DGENRE=Soul
TTITLE0=Midnight Dancer
TTITLE1=Your Good Lovin'
TTITLE2=Secrets
TTITLE3=I Can't Stop (Turning You On)
TTITLE4=Love's Gonna Get You (In The End)
TTITLE5=Debbie's Disco Theme
TTITLE6=Get On Up
TTITLE7=Keep Dancin'
EXTD=
EXTT0=
EXTT1=
EXTT2=
EXTT3=
EXTT4=
EXTT5=
EXTT6=
EXTT7=
PLAYORDER=
